<?xml version="1.0" encoding="UTF-8" standalone="no"?>
<!-- Created with Inkscape (http://www.inkscape.org/) -->

<svg
   width="22"
   height="22"
   viewBox="0 0 5.8208332 5.8208332"
   version="1.1"
   id="svg5"
   inkscape:version="1.2.1 (9c6d41e410, 2022-07-14)"
   sodipodi:docname="dark_painting_mode.svg"
   xmlns:inkscape="http://www.inkscape.org/namespaces/inkscape"
   xmlns:sodipodi="http://sodipodi.sourceforge.net/DTD/sodipodi-0.dtd"
   xmlns="http://www.w3.org/2000/svg"
   xmlns:svg="http://www.w3.org/2000/svg">
  <sodipodi:namedview
     id="namedview7"
     pagecolor="#b1b1b1"
     bordercolor="#000000"
     borderopacity="0.25"
     inkscape:showpageshadow="2"
     inkscape:pageopacity="0"
     inkscape:pagecheckerboard="0"
     inkscape:deskcolor="#d1d1d1"
     inkscape:document-units="px"
     showgrid="true"
     inkscape:zoom="13.455443"
     inkscape:cx="-2.0809422"
     inkscape:cy="5.499633"
     inkscape:window-width="1920"
     inkscape:window-height="1017"
     inkscape:window-x="936"
     inkscape:window-y="1076"
     inkscape:window-maximized="1"
     inkscape:current-layer="layer1"
     showguides="true">
    <inkscape:grid
       type="xygrid"
       id="grid9724" />
    <sodipodi:guide
       position="5.5652004,5.5566513"
       orientation="0,-1"
       id="guide23795"
       inkscape:locked="false" />
    <sodipodi:guide
       position="5.5547722,5.6018403"
       orientation="1,0"
       id="guide23797"
       inkscape:locked="false" />
    <sodipodi:guide
       position="0.26545948,0.51164368"
       orientation="1,0"
       id="guide25253"
       inkscape:locked="false" />
    <sodipodi:guide
       position="0.26014932,0.26299543"
       orientation="0,-1"
       id="guide25255"
       inkscape:locked="false" />
    <sodipodi:guide
       position="2.9104166,5.8208332"
       orientation="1,0"
       id="guide34408"
       inkscape:locked="false" />
    <sodipodi:guide
       position="5.8208332,2.9104166"
       orientation="0,-1"
       id="guide34410"
       inkscape:locked="false" />
    <sodipodi:guide
       position="-5.3485168,0.26299543"
       orientation="1,0"
       id="guide73181"
       inkscape:locked="false" />
    <sodipodi:guide
       position="4.7346833,1.2255559"
       orientation="0,-1"
       id="guide73183"
       inkscape:locked="false" />
  </sodipodi:namedview>
  <defs
     id="defs2">
    <clipPath
       clipPathUnits="userSpaceOnUse"
       id="clipPath8033">
      <path
         id="path8035"
         style="fill:#ffffff;fill-opacity:1;stroke:#000000;stroke-width:0.529164;stroke-linecap:round;stroke-linejoin:round;stroke-opacity:1"
         d="m 93.80088,183.27177 a 4.8798021,4.9856149 0 0 0 -4.879803,4.98561 4.8798021,4.9856149 0 0 0 4.879803,4.98562 4.8798021,4.9856149 0 0 0 0.0065,-4.5e-4 v 4.5e-4 h 11.55224 a 4.8798021,4.9856149 0 0 0 4.8798,-4.98562 4.8798021,4.9856149 0 0 0 -4.8798,-4.98561 H 93.807339 a 4.8798021,4.9856149 0 0 0 -0.0066,0 z" />
    </clipPath>
  </defs>
  <g
     inkscape:label="Layer 1"
     inkscape:groupmode="layer"
     id="layer1">
    <path
       id="path38385"
       style="display:inline;fill:#373737;fill-opacity:1;stroke:none;stroke-width:0.0855604;stroke-linecap:round;stroke-linejoin:round"
       d="m 2.2042831,0.4402231 c -0.909472,4.5e-5 -1.646795,0.737311 -1.646796,1.646795 0,0.29996 0.0803,0.581131 0.22042,0.823357 -0.140144,0.242238 -0.220419,0.523454 -0.22042,0.823439 -1e-6,0.909512 0.737368,1.646796 1.64688,1.646796 l 0.0021,-8.4e-5 v 8.4e-5 h 1.410083 c 0.909512,0 1.646797,-0.737284 1.646796,-1.646796 -10e-7,-0.299985 -0.08019,-0.581201 -0.220336,-0.823439 0.140121,-0.242226 0.220336,-0.523398 0.220336,-0.823357 -10e-7,-0.909512 -0.737285,-1.646795 -1.646796,-1.646795 h -1.410083 -0.0021 z" />
  </g>
</svg>
