<?xml version="1.0" encoding="UTF-8" standalone="no"?>
<!-- Created with Inkscape (http://www.inkscape.org/) -->

<svg
   width="22"
   height="22"
   viewBox="0 0 5.8208332 5.8208332"
   version="1.1"
   id="svg5"
   inkscape:version="1.2.1 (9c6d41e410, 2022-07-14)"
   sodipodi:docname="dark_pressure_colrate.svg"
   xmlns:inkscape="http://www.inkscape.org/namespaces/inkscape"
   xmlns:sodipodi="http://sodipodi.sourceforge.net/DTD/sodipodi-0.dtd"
   xmlns:xlink="http://www.w3.org/1999/xlink"
   xmlns="http://www.w3.org/2000/svg"
   xmlns:svg="http://www.w3.org/2000/svg">
  <sodipodi:namedview
     id="namedview7"
     pagecolor="#b1b1b1"
     bordercolor="#000000"
     borderopacity="0.25"
     inkscape:showpageshadow="2"
     inkscape:pageopacity="0"
     inkscape:pagecheckerboard="0"
     inkscape:deskcolor="#d1d1d1"
     inkscape:document-units="px"
     showgrid="true"
     inkscape:zoom="6.7277215"
     inkscape:cx="13.823402"
     inkscape:cy="13.823402"
     inkscape:window-width="1920"
     inkscape:window-height="1017"
     inkscape:window-x="1912"
     inkscape:window-y="-8"
     inkscape:window-maximized="1"
     inkscape:current-layer="layer1"
     showguides="true">
    <inkscape:grid
       type="xygrid"
       id="grid9724" />
    <sodipodi:guide
       position="2.9104166,5.8208332"
       orientation="0,-1"
       id="guide23795"
       inkscape:locked="false" />
    <sodipodi:guide
       position="5.5547722,5.6018403"
       orientation="1,0"
       id="guide23797"
       inkscape:locked="false" />
    <sodipodi:guide
       position="0.26545948,0.51164368"
       orientation="1,0"
       id="guide25253"
       inkscape:locked="false" />
    <sodipodi:guide
       position="0.26014932,0.26299543"
       orientation="0,-1"
       id="guide25255"
       inkscape:locked="false" />
    <sodipodi:guide
       position="2.9104166,5.8208332"
       orientation="1,0"
       id="guide34408"
       inkscape:locked="false" />
    <sodipodi:guide
       position="5.8208332,2.9104166"
       orientation="0,-1"
       id="guide34410"
       inkscape:locked="false" />
  </sodipodi:namedview>
  <defs
     id="defs2">
    <clipPath
       clipPathUnits="userSpaceOnUse"
       id="clipPath8033">
      <path
         id="path8035"
         style="fill:#ffffff;fill-opacity:1;stroke:#000000;stroke-width:0.529164;stroke-linecap:round;stroke-linejoin:round;stroke-opacity:1"
         d="m 93.80088,183.27177 a 4.8798021,4.9856149 0 0 0 -4.879803,4.98561 4.8798021,4.9856149 0 0 0 4.879803,4.98562 4.8798021,4.9856149 0 0 0 0.0065,-4.5e-4 v 4.5e-4 h 11.55224 a 4.8798021,4.9856149 0 0 0 4.8798,-4.98562 4.8798021,4.9856149 0 0 0 -4.8798,-4.98561 H 93.807339 a 4.8798021,4.9856149 0 0 0 -0.0066,0 z" />
    </clipPath>
    <radialGradient
       inkscape:collect="always"
       xlink:href="#linearGradient13429"
       id="radialGradient28478"
       gradientUnits="userSpaceOnUse"
       gradientTransform="matrix(-1.5163121,-6.1945365e-7,4.3809933e-7,-0.8654058,6.6248302,8.5720519)"
       cx="3.9917002"
       cy="4.5952702"
       fx="3.9917002"
       fy="4.5952702"
       r="2.1025217" />
    <linearGradient
       inkscape:collect="always"
       id="linearGradient13429">
      <stop
         style="stop-color:#00e9e3;stop-opacity:1;"
         offset="0.31415451"
         id="stop16539" />
      <stop
         style="stop-color:#424242;stop-opacity:1;"
         offset="0.91267812"
         id="stop41245" />
      <stop
         style="stop-color:#303030;stop-opacity:1;"
         offset="1"
         id="stop13427" />
    </linearGradient>
    <radialGradient
       inkscape:collect="always"
       xlink:href="#linearGradient28484"
       id="radialGradient27704-2"
       cx="3.9917002"
       cy="4.5952702"
       fx="3.9917002"
       fy="4.5952702"
       r="2.1025217"
       gradientTransform="matrix(1.5163121,6.1945365e-7,-4.3809933e-7,0.8654058,-1.3593229,0.61850061)"
       gradientUnits="userSpaceOnUse" />
    <linearGradient
       inkscape:collect="always"
       id="linearGradient28484">
      <stop
         style="stop-color:#00e9e3;stop-opacity:0;"
         offset="0.32421058"
         id="stop28488" />
      <stop
         style="stop-color:#00e9e3;stop-opacity:0.13559322;"
         offset="0.44736493"
         id="stop41247" />
      <stop
         style="stop-color:#00e9e3;stop-opacity:0.38700566;"
         offset="0.57051927"
         id="stop28486" />
      <stop
         style="stop-color:#ffffff;stop-opacity:1;"
         offset="1"
         id="stop28482" />
    </linearGradient>
  </defs>
  <g
     inkscape:label="Layer 1"
     inkscape:groupmode="layer"
     id="layer1">
    <path
       id="path29530-9"
       style="display:inline;fill:none;fill-opacity:1;stroke:#373737;stroke-width:0.0838729;stroke-linecap:round;stroke-linejoin:round;stroke-dasharray:none;stroke-opacity:1"
       d="m 1.5155076,3.6519357 a 0.94333875,0.94333875 0 0 0 -0.9433384,0.9433383 0.94333875,0.94333875 0 0 0 0.9433384,0.9433405 0.94333875,0.94333875 0 0 0 0.00127,-8.13e-5 v 8.13e-5 H 3.7500025 A 0.94333875,0.94333875 0 0 0 4.6933398,4.595274 0.94333875,0.94333875 0 0 0 3.7500025,3.6519357 H 1.516762 a 0.94333875,0.94333875 0 0 0 -0.00127,0 z" />
    <path
       id="path28476"
       style="fill:url(#radialGradient28478);fill-opacity:1;stroke:none;stroke-width:0.0838729;stroke-linecap:round;stroke-linejoin:round;stroke-dasharray:none;stroke-opacity:1"
       d="M 3.7500014,5.5386143 A 0.94333875,0.94333875 0 0 0 4.6933398,4.595276 0.94333875,0.94333875 0 0 0 3.7500014,3.6519355 a 0.94333875,0.94333875 0 0 0 -0.00127,8.13e-5 v -8.13e-5 H 1.5155065 A 0.94333875,0.94333875 0 0 0 0.5721692,4.595276 0.94333875,0.94333875 0 0 0 1.5155065,5.5386143 H 3.748747 a 0.94333875,0.94333875 0 0 0 0.00127,0 z" />
    <path
       id="path29530-2"
       style="fill:url(#radialGradient27704-2);fill-opacity:1;stroke:none;stroke-width:0.0838729;stroke-linecap:round;stroke-linejoin:round;stroke-dasharray:none;stroke-opacity:1"
       d="m 1.5155059,3.651938 a 0.94333875,0.94333875 0 0 0 -0.9433384,0.9433383 0.94333875,0.94333875 0 0 0 0.9433384,0.9433405 0.94333875,0.94333875 0 0 0 0.00127,-8.13e-5 v 8.13e-5 H 3.7500008 A 0.94333875,0.94333875 0 0 0 4.6933381,4.5952763 0.94333875,0.94333875 0 0 0 3.7500008,3.651938 H 1.5167603 a 0.94333875,0.94333875 0 0 0 -0.00127,0 z" />
    <path
       id="path21975"
       style="fill:#373737;fill-opacity:1;stroke:none;stroke-width:0.0855612;stroke-linecap:round;stroke-linejoin:round"
       d="m 4.0059353,0.2641819 c -0.0055,0.009 -0.231855,0.40063 -0.237241,0.409672 -0.423569,0.733645 -0.420033,1.528673 0.0079,1.775721 0.427894,0.247039 1.118123,-0.147442 1.541692,-0.881087 0.0053,-0.0091 0.2313499,-0.400927 0.2364859,-0.410108 z m -0.417264,2.195214 -0.20129,0.348645 c -0.04371,0.07571 -0.01795,0.171852 0.05776,0.215562 0.07571,0.04371 0.17185,0.01795 0.215562,-0.05776 l 0.20129,-0.348646 c -0.05218,-0.01208 -0.101927,-0.03138 -0.148558,-0.0583 -0.04663,-0.02692 -0.08822,-0.06035 -0.124764,-0.09951 z" />
  </g>
</svg>
