<?xml version="1.0" encoding="UTF-8" standalone="no"?>
<!-- Created with Inkscape (http://www.inkscape.org/) -->

<svg
   width="22"
   height="22"
   viewBox="0 0 5.8208332 5.8208332"
   version="1.1"
   id="svg5"
   inkscape:version="1.2.1 (9c6d41e410, 2022-07-14)"
   sodipodi:docname="light_pressure_size.svg"
   xmlns:inkscape="http://www.inkscape.org/namespaces/inkscape"
   xmlns:sodipodi="http://sodipodi.sourceforge.net/DTD/sodipodi-0.dtd"
   xmlns="http://www.w3.org/2000/svg"
   xmlns:svg="http://www.w3.org/2000/svg">
  <sodipodi:namedview
     id="namedview7"
     pagecolor="#e0e0e0"
     bordercolor="#000000"
     borderopacity="0.25"
     inkscape:showpageshadow="2"
     inkscape:pageopacity="0"
     inkscape:pagecheckerboard="0"
     inkscape:deskcolor="#d1d1d1"
     inkscape:document-units="mm"
     showgrid="true"
     inkscape:zoom="13.455443"
     inkscape:cx="7.6548946"
     inkscape:cy="8.1751301"
     inkscape:window-width="1920"
     inkscape:window-height="1017"
     inkscape:window-x="936"
     inkscape:window-y="1076"
     inkscape:window-maximized="1"
     inkscape:current-layer="layer1"
     showguides="true">
    <inkscape:grid
       type="xygrid"
       id="grid9724" />
    <sodipodi:guide
       position="5.8208332,5.5652056"
       orientation="0,-1"
       id="guide23795"
       inkscape:locked="false" />
    <sodipodi:guide
       position="5.5648172,5.8208332"
       orientation="1,0"
       id="guide23797"
       inkscape:locked="false" />
    <sodipodi:guide
       position="0.26545948,0.51164368"
       orientation="1,0"
       id="guide25253"
       inkscape:locked="false" />
    <sodipodi:guide
       position="0.26014932,0.26299543"
       orientation="0,-1"
       id="guide25255"
       inkscape:locked="false" />
  </sodipodi:namedview>
  <defs
     id="defs2" />
  <g
     inkscape:label="Layer 1"
     inkscape:groupmode="layer"
     id="layer1">
    <path
       id="path2423"
       style="fill:#d2d2d2;fill-opacity:1;stroke:none;stroke-width:0.529167;stroke-linecap:round;stroke-linejoin:round"
       d="M 0.84269414,2.4026149 C 0.53725529,2.4027475 0.28498733,2.6411963 0.26766502,2.9461433 h -1.6169e-4 c -0.004794,0.062079 -0.00735,0.1247162 -0.007354,0.1878318 C 0.26018783,4.4726536 1.3454202,5.557846 2.6840954,5.5578379 3.4441048,5.5358384 4.3673829,5.1769323 4.3889623,4.4245751 4.3889604,3.8757126 3.9521285,3.4118843 3.3965733,3.4118811 3.0916402,3.4479767 2.9325844,3.5687234 2.6840954,3.5759849 2.0988807,3.5759882 1.5944911,3.2302711 1.363751,2.73199 1.2571164,2.5345247 1.038083,2.4069272 0.84270414,2.4026828 Z"
       sodipodi:nodetypes="ccccccccccc" />
    <path
       id="path23778"
       style="fill:#d2d2d2;fill-opacity:1;stroke:none;stroke-width:0.529169;stroke-linecap:round;stroke-linejoin:round"
       d="M 4.0160209,0.25562717 C 4.0105235,0.26460095 3.784166,0.65625733 3.7787806,0.66529902 3.3552113,1.3989423 3.3587476,2.1939708 3.7866387,2.4410182 4.2145331,2.6880576 4.9047617,2.2935765 5.3283311,1.5599317 5.3335828,1.5508123 5.5596814,1.1590059 5.5648174,1.1498252 Z M 3.5987572,2.4508393 3.3974668,2.7994845 c -0.043711,0.075713 -0.017949,0.1718521 0.05776,0.2155617 0.07571,0.043711 0.1718499,0.017952 0.2155616,-0.057757 L 3.872079,2.6086437 C 3.8199026,2.5965654 3.7701526,2.5772678 3.7235213,2.5503464 3.6768912,2.5234251 3.6353032,2.4899925 3.5987572,2.4508393 Z" />
  </g>
</svg>
