<?xml version="1.0" encoding="UTF-8" standalone="no"?>
<!-- Created with Inkscape (http://www.inkscape.org/) -->

<svg
   width="22"
   height="22"
   viewBox="0 0 5.8208332 5.8208332"
   version="1.1"
   id="svg5"
   inkscape:version="1.3 (0e150ed6c4, 2023-07-21)"
   sodipodi:docname="light_pressure_scatter_off.svg"
   xmlns:inkscape="http://www.inkscape.org/namespaces/inkscape"
   xmlns:sodipodi="http://sodipodi.sourceforge.net/DTD/sodipodi-0.dtd"
   xmlns="http://www.w3.org/2000/svg"
   xmlns:svg="http://www.w3.org/2000/svg">
  <sodipodi:namedview
     id="namedview7"
     pagecolor="#b1b1b1"
     bordercolor="#000000"
     borderopacity="0.25"
     inkscape:showpageshadow="2"
     inkscape:pageopacity="0"
     inkscape:pagecheckerboard="0"
     inkscape:deskcolor="#d1d1d1"
     inkscape:document-units="px"
     showgrid="true"
     inkscape:zoom="13.455443"
     inkscape:cx="-3.8274474"
     inkscape:cy="20.623624"
     inkscape:window-width="1920"
     inkscape:window-height="1017"
     inkscape:window-x="1040"
     inkscape:window-y="1079"
     inkscape:window-maximized="1"
     inkscape:current-layer="layer1"
     showguides="true">
    <inkscape:grid
       type="xygrid"
       id="grid9724"
       originx="0"
       originy="0"
       spacingy="1"
       spacingx="1"
       units="px"
       visible="true" />
    <sodipodi:guide
       position="5.5652004,5.5566513"
       orientation="0,-1"
       id="guide23795"
       inkscape:locked="false" />
    <sodipodi:guide
       position="5.5547722,5.6018403"
       orientation="1,0"
       id="guide23797"
       inkscape:locked="false" />
    <sodipodi:guide
       position="0.26545948,0.51164368"
       orientation="1,0"
       id="guide25253"
       inkscape:locked="false" />
    <sodipodi:guide
       position="0.26014932,0.26299543"
       orientation="0,-1"
       id="guide25255"
       inkscape:locked="false" />
    <sodipodi:guide
       position="2.9104166,5.8208332"
       orientation="1,0"
       id="guide34408"
       inkscape:locked="false" />
    <sodipodi:guide
       position="5.8208332,2.9104166"
       orientation="0,-1"
       id="guide34410"
       inkscape:locked="false" />
  </sodipodi:namedview>
  <defs
     id="defs2" />
  <g
     inkscape:label="Layer 1"
     inkscape:groupmode="layer"
     id="layer1">
    <path
       id="path52561"
       style="fill:#e2e2e2;fill-opacity:1;stroke:none;stroke-width:0.0855612;stroke-linecap:round;stroke-linejoin:round"
       d="M 4.0059742,0.26418211 C 4.0004767,0.27315589 3.7741207,0.66481227 3.7687348,0.67385396 3.3451657,1.4074975 3.3487018,2.2025257 3.7765929,2.4495732 4.2044872,2.6966126 4.8947151,2.3021315 5.3182858,1.5684866 5.3235408,1.5593673 5.5496349,1.1675612 5.5547717,1.1583804 Z M 3.588711,2.4593942 3.3874201,2.8080395 c -0.04371,0.075713 -0.017949,0.171852 0.05776,0.2155616 0.075711,0.043711 0.1718504,0.017952 0.2155617,-0.057757 L 3.862033,2.6171986 C 3.8098574,2.6051204 3.760107,2.5858227 3.7134757,2.5589014 3.666846,2.53198 3.6252577,2.4985474 3.588711,2.4593942 Z" />
    <path
       id="path2"
       style="opacity:1;fill:#e2e2e2;stroke-width:1.85208;stroke-linecap:round;paint-order:fill markers stroke;fill-opacity:1"
       d="M 2.14093,2.7057246 A 0.70352515,0.70352515 0 0 0 1.4648863,3.2303705 0.63956831,0.63956831 0 0 0 1.4259126,3.248858 0.70352515,0.70352515 0 0 0 1.0876409,3.1589188 0.70352515,0.70352515 0 0 0 0.38411564,3.8624439 0.70352515,0.70352515 0 0 0 0.76635767,4.4870223 0.82452269,0.82452269 0 0 0 0.75186742,4.6324242 0.82452269,0.82452269 0 0 0 1.5763112,5.4568677 0.82452269,0.82452269 0 0 0 2.0399981,5.3129649 0.75730185,0.75730185 0 0 0 2.5176757,5.4838495 0.75730185,0.75730185 0 0 0 3.2746649,4.7263608 0.75730185,0.75730185 0 0 0 3.1212683,4.275665 0.83143883,0.83143883 0 0 0 3.2047121,3.9234027 0.83143883,0.83143883 0 0 0 2.8199717,3.2248742 0.70352515,0.70352515 0 0 0 2.14093,2.7057246 Z" />
  </g>
</svg>
