<?xml version="1.0" encoding="UTF-8" standalone="no"?>
<!-- Created with Inkscape (http://www.inkscape.org/) -->

<svg
   width="22"
   height="22"
   viewBox="0 0 5.8208332 5.8208332"
   version="1.1"
   id="svg5"
   inkscape:version="1.2.1 (9c6d41e410, 2022-07-14)"
   sodipodi:docname="dark_soak_ink.svg"
   xmlns:inkscape="http://www.inkscape.org/namespaces/inkscape"
   xmlns:sodipodi="http://sodipodi.sourceforge.net/DTD/sodipodi-0.dtd"
   xmlns="http://www.w3.org/2000/svg"
   xmlns:svg="http://www.w3.org/2000/svg">
  <sodipodi:namedview
     id="namedview7"
     pagecolor="#b1b1b1"
     bordercolor="#000000"
     borderopacity="0.25"
     inkscape:showpageshadow="2"
     inkscape:pageopacity="0"
     inkscape:pagecheckerboard="0"
     inkscape:deskcolor="#d1d1d1"
     inkscape:document-units="px"
     showgrid="true"
     inkscape:zoom="26.910886"
     inkscape:cx="4.6821201"
     inkscape:cy="16.052983"
     inkscape:window-width="1920"
     inkscape:window-height="1017"
     inkscape:window-x="936"
     inkscape:window-y="1076"
     inkscape:window-maximized="1"
     inkscape:current-layer="layer1"
     showguides="true">
    <inkscape:grid
       type="xygrid"
       id="grid9724" />
    <sodipodi:guide
       position="5.5652004,5.5566513"
       orientation="0,-1"
       id="guide23795"
       inkscape:locked="false" />
    <sodipodi:guide
       position="5.5547722,5.6018403"
       orientation="1,0"
       id="guide23797"
       inkscape:locked="false" />
    <sodipodi:guide
       position="0.26545948,0.51164368"
       orientation="1,0"
       id="guide25253"
       inkscape:locked="false" />
    <sodipodi:guide
       position="0.26014932,0.26299543"
       orientation="0,-1"
       id="guide25255"
       inkscape:locked="false" />
    <sodipodi:guide
       position="2.9104166,5.8208332"
       orientation="1,0"
       id="guide34408"
       inkscape:locked="false" />
    <sodipodi:guide
       position="5.8208332,2.9104166"
       orientation="0,-1"
       id="guide34410"
       inkscape:locked="false" />
    <sodipodi:guide
       position="-5.3485168,0.26299543"
       orientation="1,0"
       id="guide73181"
       inkscape:locked="false" />
    <sodipodi:guide
       position="4.7346833,1.2255559"
       orientation="0,-1"
       id="guide73183"
       inkscape:locked="false" />
  </sodipodi:namedview>
  <defs
     id="defs2">
    <clipPath
       clipPathUnits="userSpaceOnUse"
       id="clipPath8033">
      <path
         id="path8035"
         style="fill:#ffffff;fill-opacity:1;stroke:#000000;stroke-width:0.529164;stroke-linecap:round;stroke-linejoin:round;stroke-opacity:1"
         d="m 93.80088,183.27177 a 4.8798021,4.9856149 0 0 0 -4.879803,4.98561 4.8798021,4.9856149 0 0 0 4.879803,4.98562 4.8798021,4.9856149 0 0 0 0.0065,-4.5e-4 v 4.5e-4 h 11.55224 a 4.8798021,4.9856149 0 0 0 4.8798,-4.98562 4.8798021,4.9856149 0 0 0 -4.8798,-4.98561 H 93.807339 a 4.8798021,4.9856149 0 0 0 -0.0066,0 z" />
    </clipPath>
  </defs>
  <g
     inkscape:label="Layer 1"
     inkscape:groupmode="layer"
     id="layer1">
    <path
       id="path39856"
       style="fill:#373737;fill-opacity:1;stroke-width:0.342245;stroke-linecap:square;stroke-linejoin:round"
       d="m 4.8586089,0.61104264 c -0.199591,0.0021 -0.377192,0.117341 -0.469584,0.28024706 -0.04465,0.07864 -1.205483,2.372533 -1.132766,2.365632 0.248917,0.01886 0.492228,0.151892 0.614553,0.354862 0.03037,0.06643 1.436548,-2.085874 1.482364,-2.163844 0.138021,-0.234856 0.09858,-0.5755211 -0.195604,-0.75242206 -0.0063,-0.0042 -0.01302,-0.0075 -0.01913,-0.01103 -0.09384,-0.05198 -0.189106,-0.0744 -0.279829,-0.07345 z M 2.2616939,1.7567617 c -0.140616,-3.23e-4 -0.277418,0.07261 -0.352773,0.203124 -0.112154,0.194258 0.04246,0.357227 0.148646,0.554811 0.399509,0.74337 0.532971,0.323365 0.554811,-0.148647 0.01037,-0.22407 0.04561,-0.442655 -0.148646,-0.55481 -0.06374,-0.0368 -0.133365,-0.05436 -0.202038,-0.05448 z m -1.0370949,0.89998 c -0.02458,3.23e-4 -0.05029,0.0038 -0.07737,0.01111 -0.216667,0.05806 -0.345238,0.280742 -0.287182,0.497408 0.05805,0.216667 0.282611,0.222554 0.497408,0.287182 0.8081389,0.243148 0.6054989,-0.148202 0.2871809,-0.497408 C 1.512414,2.8099827 1.396633,2.6544657 1.224601,2.6567407 Z m 1.9311429,0.809238 c -0.04032,1.62e-4 -0.08171,0.0038 -0.123914,0.01111 v 8.2e-5 c -0.05523,0.0095 -0.111998,0.02521 -0.169618,0.04763 -0.176349,0.06881 -0.296448,0.182579 -0.371824,0.313167 -0.103287,0.1789603 -0.122689,0.3895119 -0.08832,0.5594065 0.02409,0.1193129 -0.0037,0.237279 -0.05891,0.3421611 C 2.2125589,4.6986443 2.0966669,4.6453903 2.0050889,4.5792769 1.5971949,4.2455899 0.576452,3.7490207 0,4.4801789 V 5.8208332 H 5.8208329 V 4.0776911 c -0.128366,-0.045744 -0.26946,-0.065058 -0.414019,-0.06367 -0.474937,0.00456 -0.98657,0.2311898 -1.201616,0.4678301 -0.09416,0.1557726 -0.336439,0.2625206 -0.632769,0.3173449 0.229038,-0.2444096 0.320416,-0.5686845 0.200451,-0.8881152 -0.10413,-0.2776452 -0.334883,-0.4463312 -0.617143,-0.4451012 z" />
  </g>
</svg>
