<?xml version="1.0" encoding="UTF-8" standalone="no"?>
<!-- Created with Inkscape (http://www.inkscape.org/) -->

<svg
   width="22"
   height="22"
   viewBox="0 0 5.8208332 5.8208332"
   version="1.1"
   id="svg5"
   inkscape:version="1.2.1 (9c6d41e410, 2022-07-14)"
   sodipodi:docname="dark_soak_ink_off.svg"
   xmlns:inkscape="http://www.inkscape.org/namespaces/inkscape"
   xmlns:sodipodi="http://sodipodi.sourceforge.net/DTD/sodipodi-0.dtd"
   xmlns="http://www.w3.org/2000/svg"
   xmlns:svg="http://www.w3.org/2000/svg">
  <sodipodi:namedview
     id="namedview7"
     pagecolor="#b1b1b1"
     bordercolor="#000000"
     borderopacity="0.25"
     inkscape:showpageshadow="2"
     inkscape:pageopacity="0"
     inkscape:pagecheckerboard="0"
     inkscape:deskcolor="#d1d1d1"
     inkscape:document-units="px"
     showgrid="true"
     inkscape:zoom="19.02887"
     inkscape:cx="4.3092417"
     inkscape:cy="16.974208"
     inkscape:window-width="1920"
     inkscape:window-height="1017"
     inkscape:window-x="936"
     inkscape:window-y="1076"
     inkscape:window-maximized="1"
     inkscape:current-layer="layer1"
     showguides="true">
    <inkscape:grid
       type="xygrid"
       id="grid9724" />
    <sodipodi:guide
       position="5.5652004,5.5566513"
       orientation="0,-1"
       id="guide23795"
       inkscape:locked="false" />
    <sodipodi:guide
       position="5.5547722,5.6018403"
       orientation="1,0"
       id="guide23797"
       inkscape:locked="false" />
    <sodipodi:guide
       position="0.26545948,0.51164368"
       orientation="1,0"
       id="guide25253"
       inkscape:locked="false" />
    <sodipodi:guide
       position="0.26014932,0.26299543"
       orientation="0,-1"
       id="guide25255"
       inkscape:locked="false" />
    <sodipodi:guide
       position="2.9104166,5.8208332"
       orientation="1,0"
       id="guide34408"
       inkscape:locked="false" />
    <sodipodi:guide
       position="5.8208332,2.9104166"
       orientation="0,-1"
       id="guide34410"
       inkscape:locked="false" />
    <sodipodi:guide
       position="-5.3485168,0.26299543"
       orientation="1,0"
       id="guide73181"
       inkscape:locked="false" />
    <sodipodi:guide
       position="4.7346833,1.2255559"
       orientation="0,-1"
       id="guide73183"
       inkscape:locked="false" />
  </sodipodi:namedview>
  <defs
     id="defs2">
    <clipPath
       clipPathUnits="userSpaceOnUse"
       id="clipPath8033">
      <path
         id="path8035"
         style="fill:#ffffff;fill-opacity:1;stroke:#000000;stroke-width:0.529164;stroke-linecap:round;stroke-linejoin:round;stroke-opacity:1"
         d="m 93.80088,183.27177 a 4.8798021,4.9856149 0 0 0 -4.879803,4.98561 4.8798021,4.9856149 0 0 0 4.879803,4.98562 4.8798021,4.9856149 0 0 0 0.0065,-4.5e-4 v 4.5e-4 h 11.55224 a 4.8798021,4.9856149 0 0 0 4.8798,-4.98562 4.8798021,4.9856149 0 0 0 -4.8798,-4.98561 H 93.807339 a 4.8798021,4.9856149 0 0 0 -0.0066,0 z" />
    </clipPath>
  </defs>
  <g
     inkscape:label="Layer 1"
     inkscape:groupmode="layer"
     id="layer1">
    <path
       id="path25557"
       style="fill:#373737;fill-opacity:1;stroke-width:0.342245;stroke-linecap:square;stroke-linejoin:round"
       d="m 5.2618446,1.4e-7 c -0.149122,1.62e-4 -0.2924236,0.06266 -0.3939656,0.165775 -0.06367,0.06461 -1.778482,1.97964796 -1.706461,1.99180396 0.235554,0.08264 0.436211,0.274122 0.501837,0.501835 0.01214,0.07203 1.9274501,-1.642921 1.9918869,-1.70637696 0.1941027,-0.191131 0.2441356,-0.530475 0.00577,-0.777487 -0.00503,-0.0057 -0.01063,-0.01064 -0.015626,-0.01562 C 5.5295018,0.04818814 5.3934264,-1.4286e-4 5.2618481,5.14e-6 Z M 2.801711,2.3088141 c -0.02939,3.24e-4 -0.05951,0.0022 -0.09024,0.0055 -0.188149,0.02082 -0.333566,0.09967 -0.440172,0.206301 C 2.125212,2.6667441 2.05196,2.8650752 2.041186,3.0380759 2.020966,3.3608374 1.649255,3.5795786 1.42797,3.6009913 1.698622,3.8660406 2.126749,3.9457152 2.524808,3.906806 3.1074,3.850095 3.542215,3.4456779 3.491131,2.9231868 3.458311,2.5858891 3.22893,2.3431951 2.88769,2.3121421 v 8.5e-5 c -0.02791,-0.0025 -0.05659,-0.0038 -0.08598,-0.0034 z M 5.4068139,4.0140207 C 4.931876,4.0185807 4.420244,4.2452105 4.205198,4.4818509 3.94423,4.9135966 2.547975,4.9712085 2.005089,4.5792769 1.597195,4.24559 0.57645204,3.749021 4e-8,4.4801789 V 5.8208332 H 5.8208332 V 4.0776911 c -0.128366,-0.045744 -0.26946,-0.065058 -0.4140193,-0.06367 z" />
  </g>
</svg>
